<?xml version="1.0" encoding="utf-8"?>
<!-- Generator: Adobe Illustrator 24.3.0, SVG Export Plug-In . SVG Version: 6.00 Build 0)  -->
<svg version="1.1" id="Capa_1" xmlns="http://www.w3.org/2000/svg" xmlns:xlink="http://www.w3.org/1999/xlink" x="0px" y="0px"
	 viewBox="0 0 1000 1000" style="enable-background:new 0 0 1000 1000;" xml:space="preserve">
<style type="text/css">
	.st0{fill:#FFFFFF;}
	.st1{clip-path:url(#SVGID_2_);}
	.st2{fill:#E62340;}
	.st3{fill:#874A97;}
	.st4{fill:#EC681D;}
	.st5{fill:#2B4798;}
	.st6{fill:#44AC34;}
	.st7{fill:#FDEB1A;}
	.st8{fill:#020203;}
	.st9{fill:#5F3914;}
	.st10{fill:#75CAE5;}
	.st11{fill:#F4AEC5;}
	.st12{fill:#0A5760;}
</style>
<path class="st0" d="M237.5,621.8L237.5,621.8L237.5,621.8L237.5,621.8l7.2,3.9l4.5-8.4l-7.3-3.9L237.5,621.8z M254.9,606.8
	L254.9,606.8L254.9,606.8l4.5-8.4l-7.3-3.9l-4.5,8.4L254.9,606.8L254.9,606.8z M852,838.8c-2.1-14.7-9.9-28.1-21.5-37.4
	c-22.1-17.8-44.4-18.9-70.2-5.2c-9.6,5.1-21,11-31.1,10.3c-36.1-2.7-67.6-20.2-100.6-35.7c-0.6-0.3-0.6-1.2,0-1.5
	c25.7-11.8,51.5-21.6,77.4-31.3c17.2-6.4,34-2.6,50.7,2.4c5.3,1.6,10.7,3.3,16.2,4.4c26.3,5.2,50.6-5.2,62.4-26.5
	c10.7-19.3,6.4-45.9-12.1-64.1c-7.4-7.3-9.9-14.2-9.6-24.4c1-31.3-21.6-57.1-52.2-60.9c-32.7-4.1-61.1,15-67.6,46.9
	c-3.6,17.9-12.3,32-28.3,39.3c-38.1,17.3-76.9,33.3-115.5,49.5c-9.9,4.1-21.4,3-26.2-6.4c-3.3-6.5-6.8-17.4-2.3-23.9
	c1.9-2.8,4.6-5,6.6-7.7c4.2-5.7,4-40.8,6.4-50.9c0.8-3.6-0.3-9.5-4.5-10c-5.1-0.6-10.3-0.9-15.4-0.9c-3.2,0-11.1-1.1-13.9,0.7
	c-4.2,2.6-4,12.9-3.7,17.3c1.3,21.2,3.8,42.4,5.3,63.6c1.6,22,17.9,37.3,40,35.6c8.7-0.6,17.5-3,25.6-6.3
	c26.4-10.6,52.2-22.5,78.6-33.1c32.8-13.2,58.1-32,65.5-69.8c4.2-21.4,30.6-32.8,54.3-26.7c19.5,5,35.2,27.5,30.7,47.1
	c-3,13.1-1.1,21,10.7,28.8c15.8,10.5,20.5,31,13.8,47.3c-5.9,14.3-23.2,22.7-42.3,20.1c-6-0.8-12.1-1.8-17.7-3.9
	c-28.4-11-55.9-6.7-83,4.6c-21.5,8.9-42.9,18.4-64.7,26.5c-6.9,2.5-16.2,4-22.6,1.5c-40.9-16.2-81.7-32.7-122.4-49.4
	c-15.9-6.5-84.6-33.5-89.9-37.8c-1.4-1.1-10.6-9.1-10.4-10.5c0,0,1.5-7.4,1.5-7.4l-13.7-7.3c4.5-11.6-0.3-25.1-11.6-31.1l-61.2-32.7
	c-0.7-0.4-1.6-0.1-2,0.6l-2.9,5.5l-38-20.3c-0.7-0.4-1.6-0.1-2,0.6L208,625.7c-0.4,0.7-0.1,1.6,0.6,2l38,20.3l-2.9,5.4
	c-0.4,0.7-0.1,1.6,0.6,2l61.2,32.7c11.2,6,25,2.6,32.3-7.6l13.7,7.3l3.9-7.2c0,0,13.1,3.6,19.7,6.3c55.2,22.7,110.5,45,165.7,67.5
	c13.1,5.4,26,11.2,39.1,16.8c-22,8.9-43.6,18.6-65.9,26.5c-4.9,1.8-11.9-0.4-17.4-2.4c-18.8-6.9-37.7-13.8-55.9-22.1
	c-17.1-7.8-33.2-7-50,0.1c-23.1,9.9-46.4,19.5-69.7,29c-23.4,9.6-46.8,11.3-70.5,0.3c-8-3.7-16.6-6.2-25.2-8.1
	c-24.4-5.2-55,8.6-66.2,29.3c-10.8,19.8-5.8,45.7,13.8,65c8.5,8.3,12.7,16.7,13.4,29c2.3,43.5,47.1,68.1,84.3,45.6
	c12-7.2,22.7-20,28.8-32.7c10.5-21.9,27.2-35.3,48.1-44.3c50.1-21.6,100.3-42.8,150.7-63.6c5.9-2.4,14.3-3.4,20-1.2
	c50.6,20.4,100.9,41.4,151.1,62.7c21.4,9.1,37.3,24.3,47.2,45.6c2.5,5.5,6.1,10.5,9.4,15.5c13.1,20.1,32.3,28.1,55.4,24.7
	c13.7-2,27.4-8.8,35-20.7c9.2-14.5,3.8-31.9,9.4-47.6c4.8-13.3,16.9-16.2,23.4-27C855.1,864.4,853.7,850.3,852,838.8z M253,638.9
	l-30.8-16.5l21.9-40.9l30.8,16.5L253,638.9z M323,650.1c-1.3,2.5-4.5,3.4-7,2.1c-2.1-1.1-3.1-3.4-2.6-5.6l-1.8-1l-8.1,5.3l-5-2.7
	c-0.8,0.4-1.8,0.4-2.7,0c-1.4-0.7-2-2.5-1.2-4c0.8-1.4,2.6-1.9,4-1.2c0.5,0.3,0.9,0.7,1.2,1.1c0,0,0,0.1,0,0.1
	c0.2,0.5,0.4,1,0.4,1.5l3.6,1.9l3.5-2.3l1.7-1.1l0,0l0,0l-5-2.7l-10.4-5.6l0,0l0,0l-1,1.8l-0.5,0.8l-1.6-2.6l-2.2-3.5l-1-1.7l3-0.1
	l4.2-0.1l2,0l-1.4,2.7l8.1,4.4l3.7,2l0,0l0,0l0-2l0-4.2l-2.9-1.5l0,0l0,0l-0.4,0.8l-4.2-2.2l2.3-4.2l4.2,2.2l-0.5,0.9l4.1,2.2
	l0.1,9.6l5.5,2.9c1.6-1.4,3.9-1.8,5.8-0.7C323.4,644.4,324.4,647.6,323,650.1z M346.9,672.9l-5.8-3.1l8.4-15.7l5.8,3.1L346.9,672.9z
	 M434.8,832.3c-31.2,13.4-62.5,26.7-93.8,40c-25.8,11-45.7,27.3-57.3,54.1c-4.1,9.5-12.8,19.1-21.9,24
	c-31.1,16.8-63.5-6.5-60.1-42.9c1-11.3-1.2-17.7-11-23.9c-17.9-11.4-25.1-33.3-18.4-49.7c6.4-15.6,28.4-26.4,48.2-23.2
	c7.3,1.2,14.7,3,21.3,6.2c30.5,14.7,60.6,11,90.6-1.4c21.5-8.9,43.1-17.5,64.4-26.8c12.8-5.6,24.7-6,37.7-0.2
	c17,7.5,34.6,13.6,51.9,20.5c0,0.6,0,0.6,0,1.2C469.3,817.4,452.1,824.9,434.8,832.3z M815.4,885.4c-8.8,4.7-10.3,9.9-8.8,19.1
	c1.3,7.6,0.8,15.9-0.9,23.4c-3.1,13.6-11.2,23.5-25.9,26.2c-14.9,2.8-27.7-1.7-37.9-12.8c-3.7-4.1-6.9-9-9-14
	c-13.5-32.5-39.6-50.8-70.7-63.7c-39.6-16.4-79.2-32.7-118.8-49.1c-2.2-0.9-4.3-2.2-7.8-4.3c-1.3-0.7-1.1-2.6,0.2-3.1
	c22.1-9.3,41.9-18.1,62.1-25.4c4.7-1.7,11.8,1.3,17.2,3.4c24.8,9.6,49.2,20,74,29.4c27.7,10.5,54.5,11.9,81.6-4.8
	c28.5-17.7,63.8,2.6,65.7,36.2C837.4,863,830.8,877.2,815.4,885.4z"/>
<g>
	<defs>
		<path id="SVGID_1_" d="M493.2,537.5c-5.1-11.2-6-24-5.4-36.1c0.3-7.4,1.2-15,4-21.8c4-9.6,30.3-29.4,13.3-40
			c-8.8-5.5-20.4-3.6-30.2-3.6c-12,0-24.1,0.1-36.1,0.1c-2.2,0-4.4,0-6.6,0c-21.9,0.1-43.8,0.1-65.6,0.1c-8.9,0-14.3,2.6-12.9,13.1
			c3.4,24.9,5.9,49.9,9.6,74.7c6.5,42.5,36.7,68.8,79.4,69.7c14.4,0.3,28.9,0,43.3,0c25.2,0,27.2-1.8,24.1-26.9
			C508.9,556.5,497.4,546.8,493.2,537.5z M533.6,529.1c1.2-12.9,1-26.1,0-39c-0.8-10.5-7.5-17.6-18.3-17.4
			c-11.4,0.2-17.7,7.6-18.8,18.7c-0.6,6-0.1,12.1-0.1,18.2c0,6.1-0.5,12.2,0.1,18.2c1,10.3,5.6,17.7,17.2,18.3
			C525.5,546.5,532.6,540.1,533.6,529.1z M463.9,62.5c-87.6,22.7-146,113.1-133.8,202.3c6.6,48.4,12.8,96.9,18.7,145.5
			c1.3,10.8,5.5,15.3,16.8,15.2c49.9-0.4,99.7-0.2,149.6-0.2c48.5,0,96.9-0.5,145.4,0.3c14.5,0.2,19.6-5,21-18.8
			c4.8-47.3,9.6-94.5,16-141.6C714.6,139,599.9,27.3,463.9,62.5z M660.6,436.1c-20.5,0.2-41,0.1-61.5,0.1v-0.1
			c-20.1,0-40.1-0.6-60.1,0.4c-10.1,0.5-21.1,5.9-18.9,17.7c1.7,9.2,10.7,15.2,15.1,23c6.4,11.5,7.8,25.5,7.5,38.4
			c-0.2,7.8-1,15.6-3.9,22.8c-7.5,19-26.3,20-17.9,45.3c0.7,2,1.5,4,3.1,5.4c2,1.8,4.7,2.3,7.3,2.8c19.4,3.2,39.1,2,58.7,1.7
			c40.8-0.6,73.7-30.8,78-71.5c2.5-23.2,4.1-46.5,7.6-69.5C677.5,439.4,672.1,436,660.6,436.1z"/>
	</defs>
	<clipPath id="SVGID_2_">
		<use xlink:href="#SVGID_1_"  style="overflow:visible;"/>
	</clipPath>
	<g class="st1">
		<path class="st2" d="M322,151c0,181.5,0,362.9,0,544.4c20.2,0,40.4,0,60.5,0c0-159.9,0-319.7,0-479.6c0-1.4,0-2.8,0.1-4.3
			c-0.4-0.4-0.7-0.9-1.1-1.3c-19.3-19.4-38.7-38.7-58.1-58.1C323,151.8,322.5,151.4,322,151z"/>
		<path class="st3" d="M645.6,695.4c20,0,40.1,0,60.1,0c0-181.2,0-362.4,0-543.6c-0.7,0.3-1.2,1-1.7,1.5
			c-19.1,19.1-38.1,38.1-57.2,57.2c-0.5,0.5-1.2,1-1.5,1.7c0.5,1,0.3,2.1,0.3,3.1c0,159,0,318,0,477
			C645.5,693.5,645.6,694.5,645.6,695.4z"/>
		<path class="st4" d="M382.6,211.6c0,1.4-0.1,2.8-0.1,4.3c0,159.9,0,319.7,0,479.6c22,0,44.1,0,66.1,0c0-0.9-0.1-1.7-0.1-2.6
			c0-137.4,0-274.7,0-412.1c0-0.9,0-1.8,0.1-2.8c0-0.2,0-0.3,0-0.5c-0.3-0.4-0.6-0.8-1-1.1c-21.3-21.3-42.5-42.5-63.8-63.8
			C383.5,212.3,383,212,382.6,211.6z"/>
		<path class="st5" d="M645.6,695.4c0-1-0.1-2-0.1-3c0-159,0-318,0-477c0-1,0.2-2.1-0.3-3.1c-0.7,0.4-1.2,1-1.7,1.5
			c-20.6,20.6-41.3,41.3-61.9,61.9c-0.6,0.6-1.2,1.2-1.7,1.9c-0.1,0.1-0.2,0.3-0.3,0.4c0,0,0,0,0,0c0,1,0.1,2,0.1,3
			c0,137,0,274,0,411c0,1,0,2,0,3c0.1,0.2,0.2,0.3,0.3,0.5C601.8,695.4,623.7,695.4,645.6,695.4z"/>
		<path class="st6" d="M580.1,695c0-1,0-2,0-3c0-137,0-274,0-411c0-1-0.1-2-0.1-3c-0.9,0.5-1.4,1.2-2.1,1.9
			c-21.1,20.5-42.2,41-63.2,61.5c-0.6,0.6-1.1,1.3-2,1.6c0,1.1-0.1,2.3-0.1,3.4c0,115.5,0,231,0,346.5c0,0.9,0,1.7,0,2.6
			c22.5,0,45,0,67.5,0C580,695.3,580.1,695.1,580.1,695z"/>
		<path class="st7" d="M448.6,278.1c0,0.9-0.1,1.8-0.1,2.8c0,137.4,0,274.7,0,412.1c0,0.9,0,1.7,0.1,2.6c21.6,0,43.2,0,64.8,0
			c0-68.9,0-137.8,0-206.7c0-48.8,0-97.6,0-146.4c-0.3-0.4-0.6-0.8-1-1.1c-20.8-20.8-41.5-41.5-62.3-62.3c-0.3-0.3-0.7-0.7-1.1-1
			C448.9,278,448.8,278,448.6,278.1z"/>
		<path class="st8" d="M449.1,278c0.4,0.3,0.8,0.6,1.1,1c20.8,20.8,41.5,41.5,62.3,62.3c0.3,0.3,0.6,0.7,1,1.1
			c0.3,0.1,0.4,0.3,0.6,0.5c0.9-0.2,1.4-1,2-1.6c20.5-20.5,41-41,61.5-61.5c0.6-0.6,1.2-1.4,2-1.9c0,0,0,0,0,0
			c0.1-0.1,0.2-0.3,0.3-0.4c0.6-0.6,1.1-1.3,1.7-1.9c20.6-20.6,41.3-41.3,61.9-61.9c0.5-0.5,1-1.2,1.7-1.5c0.4-0.7,1-1.2,1.5-1.7
			c19.1-19.1,38.1-38.1,57.2-57.2c0.5-0.5,1-1.2,1.7-1.5c0-16.2,0-32.4,0-48.6c-1.2,0.1-1.8,1.1-2.5,1.8
			c-62.2,62.1-124.3,124.3-186.5,186.4c-2.5,2.5-2.5,2.5-4.9,0.1c-43.1-43.1-86.2-86.2-129.3-129.3c-19.4-19.4-38.9-38.9-58.3-58.3
			c-0.6-0.6-1.1-1.5-2.2-1.6c0,16.2,0,32.4,0,48.6c0.5,0.4,1,0.8,1.4,1.2c19.4,19.3,38.7,38.7,58.1,58.1c0.4,0.4,0.7,0.8,1.1,1.3
			c0.4,0.4,0.9,0.7,1.3,1.1c21.3,21.3,42.5,42.5,63.8,63.8c0.3,0.3,0.6,0.7,1,1.1C448.9,277.6,449,277.8,449.1,278z"/>
		<path class="st9" d="M322,102.4c1.1,0,1.5,0.9,2.2,1.6c19.5,19.4,38.9,38.9,58.3,58.3c43.1,43.1,86.2,86.2,129.3,129.3
			c2.4,2.4,2.4,2.4,4.9-0.1c62.1-62.1,124.3-124.3,186.5-186.4c0.7-0.7,1.2-1.8,2.5-1.8c0-15.8,0-31.5,0-47.3c-1,0-2,0-3,0
			c0.1,1.2-0.9,1.7-1.6,2.4c-38.8,38.9-77.7,77.7-116.5,116.5c-22.9,22.9-45.7,45.7-68.6,68.6c-1.8,1.8-1.8,1.8-3.6,0
			c-4-4-8-8-12-12c-3.6-3.6-7.1-7.1-10.7-10.7c-3.3-3.3-6.5-6.5-9.8-9.8c-3.6-3.6-7.2-7.2-10.8-10.8c-3.4-3.4-6.7-6.7-10.1-10.1
			c-10.8-10.8-21.5-21.5-32.2-32.3c-15.4-15.5-31-30.9-46.4-46.5c-4.4-4.4-8.8-8.8-13.3-13.2c-5.8-5.7-11.5-11.6-17.3-17.3
			c-7.7-7.6-15.3-15.4-23.1-23c-0.5-0.5-1.1-1-0.9-1.8c-1.3,0-2.6,0-3.8,0C322,71.4,322,86.9,322,102.4z"/>
		<path class="st10" d="M325.8,56c-0.1,0.8,0.4,1.3,0.9,1.8c7.8,7.6,15.4,15.3,23.1,23c5.8,5.7,11.5,11.6,17.3,17.3
			c4.4,4.4,8.9,8.8,13.3,13.2c15.3,15.6,30.9,31,46.4,46.5c10.7,10.8,21.5,21.5,32.2,32.3c3.4,3.4,6.7,6.7,10.1,10.1
			c3.6,3.6,7.2,7.2,10.8,10.8c3.3,3.3,6.5,6.5,9.8,9.8c3.6,3.6,7.1,7.1,10.7,10.7c4,4,8,8,12,12c1.8,1.8,1.8,1.8,3.6,0
			c22.9-22.9,45.7-45.7,68.6-68.6c38.8-38.8,77.7-77.7,116.5-116.5c0.7-0.7,1.7-1.2,1.6-2.4c-15.5,0-31,0-46.5,0
			c-0.1,1.2-1,1.7-1.7,2.3c-46.1,46.1-92.1,92.1-138.2,138.2c-2.4,2.4-1.8,2.4-4.2,0c-31.6-31.6-63.2-63.2-94.8-94.8
			c-14.5-14.5-29-29-43.5-43.6c-0.6-0.6-1.6-1.1-1.5-2.2C356.8,56,341.3,56,325.8,56z"/>
		<path class="st11" d="M372.3,56c0,1.1,0.9,1.6,1.5,2.2c14.5,14.5,29,29,43.5,43.6c31.6,31.6,63.2,63.2,94.8,94.8
			c2.3,2.3,1.8,2.3,4.2,0c46.1-46.1,92.1-92.1,138.2-138.2c0.7-0.7,1.7-1.2,1.7-2.3c-15.3,0-30.7,0-46,0c0,1.1-0.9,1.6-1.5,2.2
			c-30.8,30.9-61.7,61.7-92.5,92.5c-2,2-1.7,2-3.8,0c-16.5-16.5-33.1-33.1-49.6-49.6c-14.3-14.3-28.6-28.6-42.9-43
			c-0.6-0.6-1.6-1.1-1.5-2.2C403,56,387.6,56,372.3,56z"/>
		<path class="st0" d="M418.3,56c0,1.1,0.9,1.6,1.5,2.2c14.3,14.3,28.6,28.6,42.9,43c16.5,16.5,33.1,33.1,49.6,49.6c2,2,1.8,2,3.8,0
			c30.8-30.8,61.7-61.7,92.5-92.5c0.6-0.6,1.5-1.1,1.5-2.2C546.2,56,482.3,56,418.3,56z"/>
		<path class="st12" d="M579.8,277.7c-0.1,0.1-0.2,0.3-0.3,0.4C579.6,277.9,579.7,277.8,579.8,277.7z"/>
	</g>
</g>
<path class="st0" d="M510.4,557.7c-2.2-4.1-5-7.9-7.7-11.5c-1.3-1.8-2.6-3.6-3.8-5.2c-1.1-1.7-2.1-3.3-2.8-4.8
	c-2-4.4-3.3-9.1-4.1-14c-0.8-4.9-1.1-10-1.1-15c0-1.9,0-3.7,0.1-5.6c0.2-3.6,0.4-7.2,1-10.7c0.6-3.5,1.4-6.8,2.8-10
	c0.3-0.6,0.7-1.5,1.4-2.4c1.1-1.7,2.8-3.8,4.7-6c2.8-3.4,6-7.2,8.5-11.1c1.3-2,2.4-4,3.3-6.1c0.8-2.1,1.4-4.3,1.4-6.6
	c0-1.1-0.1-2.2-0.4-3.3c-0.4-1.6-1.2-3.2-2.4-4.6c-1.1-1.4-2.6-2.7-4.4-3.8c-3-1.9-6.3-3-9.5-3.6c-3.3-0.6-6.6-0.8-9.8-0.8
	c-4.4,0-8.8,0.3-12.6,0.3c-12,0-24.1,0.1-36.1,0.1c-2.2,0-4.4,0-6.6,0c-15.9,0.1-31.9,0.1-47.8,0.1c-5.9,0-11.9,0-17.8,0h-0.1
	c-2.1,0-4.1,0.1-6,0.5c-1.4,0.3-2.8,0.7-4,1.4c-1,0.5-1.8,1.1-2.6,1.8c-1.2,1.1-2.1,2.6-2.7,4.2c-0.6,1.6-0.9,3.4-0.9,5.4
	c0,1.1,0.1,2.3,0.3,3.6c3.4,24.8,5.9,49.8,9.6,74.8c1.7,11,4.9,20.9,9.5,29.7c6.9,13.2,16.9,23.8,29.3,31.1
	c12.4,7.3,27.3,11.3,43.8,11.7c5.1,0.1,10.2,0.1,15.3,0.1c9.3,0,18.6-0.1,27.9-0.1h0.2c4.9,0,9.1-0.1,12.5-0.4
	c2.6-0.2,4.9-0.6,6.9-1.3c1.5-0.5,2.9-1.2,4.1-2.1c0.9-0.7,1.7-1.5,2.4-2.5c1-1.4,1.6-3.1,2-4.8c0.4-1.8,0.5-3.7,0.5-5.8
	c0-3.7-0.4-8.2-1.1-13.6C513,563.3,511.8,560.4,510.4,557.7z M498.6,580.6c-0.3,0-0.6,0.1-1,0.1c-1.5,0.2-3.3,0.3-5.3,0.3
	c-2,0.1-4.2,0.1-6.3,0.1h-0.2c-4.7,0-9.4,0-14,0.1c-4.6,0-9.3,0.1-13.9,0.1c-5.7,0-10.5,0-15-0.1c-9.3-0.2-17.7-1.7-25.3-4.5
	c-11.4-4.1-20.7-10.9-27.9-20.1c-7.1-9.2-12-20.7-14-34.5c-2.2-14.2-3.9-28.8-5.6-42.9c-1.2-10-2.4-20.3-3.8-30.5c0.1,0,0.1,0,0.2,0
	h0.1c5.7,0,86.2-0.1,93.2-0.2c5.1,0,10.1,0,15.2-0.1c2.2,0,4.3-0.1,6.4-0.2c2.1-0.1,4.2-0.2,6.2-0.2c2.8,0,5.1,0.2,6.9,0.5
	c1.3,0.3,2.4,0.6,3.3,1c-0.2,0.5-0.6,1.2-1.1,2c-0.9,1.5-2,3.1-3.3,4.7c-1.3,1.6-2.7,3.3-4,5c-1.9,2.3-3.6,4.4-5.2,6.6
	c-1.6,2.2-2.9,4.3-3.9,6.7c-1.9,4.6-3.1,9.4-3.8,13.8c-0.7,4.5-1,8.7-1.2,12.3c-0.1,2.1-0.1,4.1-0.1,6.1c0,7,0.5,13.4,1.6,19.3
	c1.1,5.9,2.8,11.4,5,16.4c1.1,2.5,2.6,4.9,4,7.1c1.5,2.3,3.1,4.4,4.6,6.5c1.7,2.3,3.5,4.7,4.9,6.9c0.7,1.1,1.2,2.1,1.6,3
	c0.4,0.9,0.6,1.7,0.7,2.1c0.2,2,0.5,4.1,0.7,6.1c0.2,2,0.3,3.9,0.3,5.4v0c0,0.1,0,0.2,0,0.3C498.6,580.3,498.6,580.5,498.6,580.6z
	 M506.8,436.7C506.8,436.7,506.8,436.7,506.8,436.7C506.8,436.7,506.8,436.7,506.8,436.7L506.8,436.7z M533.6,529.1
	c1.2-12.9,1-26.1,0-39c-0.8-10.3-7.3-17.4-17.9-17.4c-0.1,0-0.3,0-0.4,0c-11.4,0.2-17.7,7.6-18.8,18.7c-0.6,6-0.1,12.1-0.1,18.2
	c0,6.1-0.5,12.2,0.1,18.2c1,10.3,5.6,17.7,17.2,18.3c0.5,0,1,0,1.4,0C526.1,546,532.6,539.6,533.6,529.1z M524.4,528.2
	c-0.6,5.9-3.4,8.5-9.3,8.5c-0.3,0-0.7,0-1,0c-4.2-0.2-5.4-1.7-5.9-2.2c-1.3-1.5-2.1-4.1-2.4-7.6c-0.3-3.6-0.2-7.5-0.1-11.5
	c0-1.9,0.1-3.8,0.1-5.7c0-2,0-4.1-0.1-6c-0.1-4-0.2-7.7,0.2-11.2c0.4-3.5,1.4-6.3,3-8c1.5-1.6,3.7-2.3,6.7-2.4c0.1,0,0.2,0,0.3,0
	c2.6,0,4.7,0.7,6.1,2.1c1.5,1.5,2.3,3.8,2.6,6.7C525.4,504.8,525.4,517,524.4,528.2z M648.1,108.4c-16.9-17.1-37.1-31-59.7-40.7
	c-22.6-9.7-47.5-15-73.9-15c-16.7,0-33.9,2.1-51.5,6.7c-20.3,5.3-39.1,14.1-55.9,25.7c-25.1,17.4-45.6,41-59.8,67.9
	c-14.2,26.9-22.2,57.3-22.2,88.2c0,8,0.5,16.1,1.6,24.1c6.6,48.4,12.8,96.9,18.7,145.4c0.3,2.9,0.9,5.4,1.8,7.7
	c0.7,1.7,1.5,3.3,2.6,4.6c0.8,1,1.8,1.9,2.9,2.7c1.6,1.1,3.5,1.9,5.6,2.4c2.1,0.5,4.3,0.7,6.9,0.7c0.1,0,0.3,0,0.4,0h0
	c23.1-0.2,46.2-0.2,69.2-0.2c26.8,0,53.5,0.1,80.3,0.1c0.5,0,1.1,0,1.6,0c26.2,0,52.4-0.1,78.6-0.1c21.7,0,43.4,0.1,65.1,0.5h0
	c0.3,0,0.7,0,1,0c3.6,0,6.8-0.3,9.7-1.2c2.1-0.6,4-1.5,5.7-2.8c1.2-0.9,2.3-2,3.3-3.3c1.4-1.9,2.4-4,3.1-6.5
	c0.7-2.4,1.2-5.1,1.5-8.1c4.8-47.3,9.6-94.5,16-141.5c1.2-8.6,1.7-17.1,1.7-25.5C702.5,189.5,681.9,142.6,648.1,108.4z M685,263.6
	c-6.6,48.4-11.6,98.2-16.1,142c-0.3,2.7-0.7,4.4-1,5.4c-0.2,0.5-0.3,0.9-0.5,1c-0.1,0.1-0.1,0.2-0.1,0.2l0,0c-0.1,0-0.3,0.1-0.6,0.3
	c-0.6,0.2-1.4,0.4-2.4,0.4c-1,0.1-2,0.1-2.9,0.1c-0.2,0-0.5,0-0.7,0h0c-19-0.3-39.7-0.5-65.4-0.5c-13.1,0-26.4,0-39.3,0.1
	c-12.9,0-26.2,0.1-39.2,0.1l-1.6,0c-12.8,0-25.8,0-38.4,0c-13.7,0-27.9,0-41.9,0c-27.2,0-49.3,0.1-69.4,0.2l0,0c-0.1,0-0.2,0-0.2,0
	c-1.4,0-2.5-0.1-3.1-0.2c0,0-0.1,0-0.1,0c-0.1-0.1-0.1-0.3-0.2-0.5c-0.2-0.7-0.4-1.8-0.6-3.4c-6-50-12.3-99-18.7-145.7
	c-1-7.3-1.5-14.7-1.5-22c0-13.1,1.6-26.3,4.7-39.4c4.8-19.9,13-38.8,24.3-56.1c23.4-35.6,57.8-60.8,96.9-71
	c15.9-4.1,31.8-6.2,47.5-6.2c25.5,0,49.9,5.4,72.6,16C598,89.6,608.4,95.8,618,103c9.5,7.2,18.3,15.3,26.1,24.3
	c7.9,9,14.8,18.8,20.6,29.2c5.9,10.5,10.7,21.6,14.2,33.1c5.1,16.5,7.7,33.4,7.7,50.5C686.6,248,686.1,255.8,685,263.6z
	 M675.2,436.9c-0.9-0.8-1.9-1.5-2.9-2c-1.6-0.8-3.3-1.3-5.2-1.6c-1.9-0.3-3.9-0.4-6-0.4c-0.2,0-0.4,0-0.6,0
	c-8.4,0.1-16.8,0.1-25.2,0.1c-11,0-22,0-33,0v-0.1h-3.3c-11.1,0-22.3-0.2-33.5-0.2c-8.9,0-17.8,0.1-26.8,0.6
	c-2.6,0.1-5.1,0.5-7.6,1.3c-1.9,0.5-3.7,1.3-5.4,2.2c-2.6,1.4-4.9,3.3-6.6,5.7c-0.8,1.2-1.5,2.6-2,4.1c-0.5,1.5-0.7,3.1-0.7,4.8
	c0,1.1,0.1,2.3,0.3,3.5c0.5,2.7,1.6,5.2,2.9,7.4c2,3.3,4.4,6.1,6.7,8.8c2.3,2.7,4.5,5.2,5.9,7.8c2.7,4.8,4.5,10.2,5.6,15.8
	c1.1,5.6,1.5,11.5,1.5,17.3c0,1.2,0,2.4-0.1,3.6c-0.1,3.8-0.4,7.6-0.9,11.2c-0.6,3.6-1.4,7.2-2.7,10.5c-1.4,3.6-3.2,6.4-5.3,9
	c-1.5,1.9-3.2,3.7-4.8,5.5c-1.2,1.3-2.5,2.7-3.6,4.1c-1.8,2.1-3.4,4.4-4.6,7.1c-1.2,2.7-1.9,5.8-1.9,9.4c0,3.6,0.7,7.7,2.3,12.4
	c0.4,1.1,0.8,2.3,1.4,3.4c0.6,1.2,1.4,2.4,2.6,3.4c0.7,0.6,1.5,1.2,2.2,1.6c1.2,0.6,2.4,1,3.5,1.3c1.1,0.3,2.2,0.5,3.3,0.7
	c10.8,1.8,21.7,2.2,32.4,2.2c9,0,18-0.3,26.8-0.4c21.2-0.3,40.4-8.3,54.8-21.6c14.4-13.2,24.1-31.7,26.4-52.8
	c2.5-23.2,4.1-46.5,7.5-69.3c0.3-2,0.5-3.8,0.5-5.4c0-2.6-0.4-4.9-1.2-6.9C677.3,439.3,676.4,438,675.2,436.9z M663.1,450.8
	c-2.4,16-4,32.2-5.4,47.8c-0.7,7.3-1.4,14.8-2.2,22.2c-1.9,17.3-9.7,32.2-21.3,42.8c-11.7,10.7-27.1,17.1-44.4,17.4
	c-3.4,0-6.8,0.1-10,0.2c-5.5,0.1-11.1,0.2-16.6,0.2c-12.2,0-21.4-0.6-29.8-2c-0.2,0-0.4-0.1-0.6-0.1c-1.1-3.4-1.4-5.7-1.4-7.1
	c0-0.8,0.1-1.3,0.2-1.7c0-0.2,0.1-0.3,0.1-0.5c0-0.1,0.1-0.2,0.1-0.4l0,0c0.2-0.4,0.4-0.9,0.7-1.4c0.5-0.8,1.1-1.6,1.9-2.6
	c0.8-1,1.8-2,2.9-3.2c4.1-4.4,9.6-10.3,13.2-19.4c1.9-4.9,3.1-9.8,3.7-14.4c0.7-4.6,0.9-9,1-12.7c0-1.4,0.1-2.7,0.1-4
	c0-8.2-0.7-15.7-2.2-22.5c-1.5-6.8-3.8-12.9-6.9-18.5c-2.3-4.2-5.2-7.5-7.9-10.5c-1.6-1.9-3.1-3.5-4.1-5c-0.5-0.7-0.9-1.4-1.2-2
	c-0.3-0.6-0.5-1.1-0.6-1.6c-0.1-0.3-0.1-0.5-0.1-0.6c0.1-0.1,0.3-0.3,0.6-0.5c0.6-0.4,1.6-0.8,2.8-1.1c1.2-0.3,2.5-0.5,3.9-0.6
	c7.5-0.4,15.7-0.6,25.9-0.6c5.5,0,11.2,0.1,16.7,0.1c5,0,10.1,0.1,15.2,0.1c0.5,0.1,1.1,0.1,1.7,0.1c6,0,12.2,0,18.1,0
	c6,0,12.1,0,18.2,0c9.8,0,17.9,0,25.4-0.1h0c0.1,0,0.3,0,0.4,0c0.9,0,1.6,0,2.1,0.1C663.2,449.3,663.2,450,663.1,450.8L663.1,450.8z
	"/>
</svg>
